<svg width="40" height="40" viewBox="0 0 40 40" fill="none" xmlns="http://www.w3.org/2000/svg">
<path fill-rule="evenodd" clip-rule="evenodd" d="M10.4517 3.5191C9.10226 3.69686 8.38765 4.02199 7.87866 4.52066C7.36967 5.01933 7.03781 5.71946 6.85638 7.04158C6.66962 8.40257 6.66669 10.2064 6.66669 12.7927V27.0737C7.31448 26.6301 8.04458 26.2926 8.83166 26.086C9.71196 25.8549 10.7384 25.8552 12.2427 25.8557L33.3334 25.8558V12.7927C33.3334 10.2064 33.3304 8.40257 33.1437 7.04158C32.9622 5.71946 32.6304 5.01933 32.1214 4.52066C31.6124 4.02199 30.8978 3.69686 29.5483 3.5191C28.1592 3.33612 26.318 3.33325 23.6782 3.33325H16.3219C13.682 3.33325 11.8409 3.33612 10.4517 3.5191ZM11.2644 10.9909C11.2644 10.2446 11.8819 9.63956 12.6437 9.63956H27.3563C28.1181 9.63956 28.7357 10.2446 28.7357 10.9909C28.7357 11.7372 28.1181 12.3423 27.3563 12.3423H12.6437C11.8819 12.3423 11.2644 11.7372 11.2644 10.9909ZM12.6437 15.9459C11.8819 15.9459 11.2644 16.5509 11.2644 17.2972C11.2644 18.0435 11.8819 18.6486 12.6437 18.6486H21.8391C22.6009 18.6486 23.2184 18.0435 23.2184 17.2972C23.2184 16.5509 22.6009 15.9459 21.8391 15.9459H12.6437Z" fill="#515B6F"/>
<path d="M14.4828 28.5585H12.4557C10.6566 28.5585 10.0276 28.5701 9.54565 28.6966C8.22276 29.0439 7.16816 30.0073 6.71589 31.2596C6.74385 31.897 6.78768 32.4576 6.85638 32.9583C7.03781 34.2804 7.36967 34.9805 7.87866 35.4792C8.38765 35.9779 9.10226 36.303 10.4517 36.4807C11.8409 36.6637 13.682 36.6666 16.3219 36.6666H23.6782C26.318 36.6666 28.1592 36.6637 29.5483 36.4807C30.8978 36.303 31.6124 35.9779 32.1214 35.4792C32.6304 34.9805 32.9622 34.2804 33.1437 32.9583C33.296 31.8479 33.326 30.4428 33.3319 28.5585H21.8391V33.5695C21.8391 34.066 21.8391 34.3143 21.6647 34.4146C21.4902 34.515 21.2516 34.404 20.7745 34.1819L18.4899 33.1187C18.3285 33.0436 18.2478 33.006 18.1609 33.006C18.0741 33.006 17.9934 33.0436 17.832 33.1187L15.5474 34.1819C15.0702 34.404 14.8317 34.515 14.6572 34.4146C14.4828 34.3143 14.4828 34.066 14.4828 33.5695V28.5585Z" fill="#515B6F"/>
</svg>
