<svg width="44" height="44" viewBox="0 0 44 44" fill="none" xmlns="http://www.w3.org/2000/svg">
<path opacity="0.5" d="M38.3404 10.7963C38.9584 11.7211 38.9584 13.0086 38.9584 15.5834V38.9584H39.875C40.6344 38.9584 41.25 39.574 41.25 40.3334C41.25 41.0928 40.6344 41.7084 39.875 41.7084H3.20837C2.44898 41.7084 1.83337 41.0928 1.83337 40.3334C1.83337 39.574 2.44898 38.9584 3.20837 38.9584H4.12504V15.5834C4.12504 13.0086 4.12504 11.7211 4.74299 10.7963C5.0105 10.396 5.35425 10.0522 5.75462 9.7847C6.56353 9.2442 10.4053 9.17646 12.3879 9.16797C12.3804 9.70218 12.3804 10.2604 12.3805 10.836V10.836L12.3805 11.0001V13.2918H7.79171C7.03232 13.2918 6.41671 13.9074 6.41671 14.6668C6.41671 15.4261 7.03232 16.0418 7.79171 16.0418H12.3805V18.7918H7.79171C7.03232 18.7918 6.41671 19.4074 6.41671 20.1668C6.41671 20.9261 7.03232 21.5418 7.79171 21.5418H12.3805V24.2918H7.79171C7.03232 24.2918 6.41671 24.9074 6.41671 25.6668C6.41671 26.4261 7.03232 27.0418 7.79171 27.0418H12.3805V38.9584H30.7138V27.0418H35.2917C36.0511 27.0418 36.6667 26.4261 36.6667 25.6668C36.6667 24.9074 36.0511 24.2918 35.2917 24.2918H30.7138V21.5418H35.2917C36.0511 21.5418 36.6667 20.9261 36.6667 20.1668C36.6667 19.4074 36.0511 18.7918 35.2917 18.7918H30.7138V16.0418H35.2917C36.0511 16.0418 36.6667 15.4261 36.6667 14.6668C36.6667 13.9074 36.0511 13.2918 35.2917 13.2918H30.7138V11.0001L30.7138 10.836C30.7138 10.2604 30.7139 9.7022 30.7064 9.16797C32.6889 9.17646 36.5199 9.2442 37.3288 9.7847C37.7292 10.0522 38.0729 10.396 38.3404 10.7963Z" fill="#515B6F"/>
<path fill-rule="evenodd" clip-rule="evenodd" d="M19.7084 3.66675H23.375C26.832 3.66675 28.5605 3.66675 29.6344 4.74069C30.7084 5.81463 30.7084 7.54312 30.7084 11.0001V38.9584H33.4584H38.9584H39.875C40.6344 38.9584 41.25 39.574 41.25 40.3334C41.25 41.0928 40.6344 41.7084 39.875 41.7084H3.20837C2.44898 41.7084 1.83337 41.0928 1.83337 40.3334C1.83337 39.574 2.44898 38.9584 3.20837 38.9584H4.12504H9.62504H12.375V11.0001C12.375 7.54311 12.375 5.81463 13.449 4.74069C14.5229 3.66675 16.2514 3.66675 19.7084 3.66675ZM21.5417 33.4584C22.3011 33.4584 22.9167 34.074 22.9167 34.8334V38.9584H20.1667V34.8334C20.1667 34.074 20.7823 33.4584 21.5417 33.4584ZM17.875 25.6667C17.1156 25.6667 16.5 26.2824 16.5 27.0417C16.5 27.8011 17.1156 28.4167 17.875 28.4167H25.2084C25.9678 28.4167 26.5834 27.8011 26.5834 27.0417C26.5834 26.2824 25.9678 25.6667 25.2084 25.6667H17.875ZM16.5 21.5417C16.5 20.7824 17.1156 20.1667 17.875 20.1667H25.2084C25.9678 20.1667 26.5834 20.7824 26.5834 21.5417C26.5834 22.3011 25.9678 22.9167 25.2084 22.9167H17.875C17.1156 22.9167 16.5 22.3011 16.5 21.5417ZM17.875 15.5834C17.1156 15.5834 16.5 16.199 16.5 16.9584C16.5 17.7178 17.1156 18.3334 17.875 18.3334H25.2084C25.9678 18.3334 26.5834 17.7178 26.5834 16.9584C26.5834 16.199 25.9678 15.5834 25.2084 15.5834H17.875ZM16.5 11.4584C16.5 10.699 17.1156 10.0834 17.875 10.0834H25.2084C25.9678 10.0834 26.5834 10.699 26.5834 11.4584C26.5834 12.2178 25.9678 12.8334 25.2084 12.8334H17.875C17.1156 12.8334 16.5 12.2178 16.5 11.4584Z" fill="#515B6F"/>
</svg>
