<svg width="50" height="50" viewBox="0 0 50 50" fill="none" xmlns="http://www.w3.org/2000/svg">
<path opacity="0.5" d="M8.33331 22.9167H33.3333C37.2617 22.9167 39.2259 22.9167 40.4463 24.1371C41.6666 25.3575 41.6666 27.3217 41.6666 31.2501V33.3334C41.6666 39.226 41.6666 42.1722 39.8361 44.0028C38.0055 45.8334 35.0592 45.8334 29.1666 45.8334H20.8333C14.9408 45.8334 11.9945 45.8334 10.1639 44.0028C8.33331 42.1722 8.33331 39.226 8.33331 33.3334V22.9167Z" fill="#515B6F"/>
<path d="M27.7449 17.0833L28.9957 6.59588L19.1816 9.22556L19.0963 9.81805L17.8378 20.3697L27.6684 17.7357L27.7449 17.0833Z" fill="#515B6F"/>
<path d="M7.25655 15.6561C6.82312 17.2737 7.32707 19.1545 8.33497 22.916L14.5833 21.2418L14.6647 20.5881L15.9155 10.1007L15.7007 10.1583C11.9391 11.1662 10.0584 11.6701 8.87417 12.8543C8.0984 13.6301 7.54051 14.5964 7.25655 15.6561Z" fill="#515B6F"/>
<path d="M38.0171 14.9627L30.9181 16.8649L32.1766 6.31321L32.2916 5.74596C32.56 5.69241 32.7897 5.65937 33.0083 5.64504C35.5308 5.47971 37.9044 6.85016 39.0225 9.11736C39.2948 9.66944 39.4827 10.3707 39.8585 11.7733C39.9838 12.2408 40.0464 12.4746 40.0598 12.6793C40.1149 13.5202 39.6581 14.3114 38.9024 14.6841C38.7183 14.7748 38.4846 14.8375 38.0171 14.9627Z" fill="#515B6F"/>
</svg>
