<svg width="46" height="46" viewBox="0 0 46 46" fill="none" xmlns="http://www.w3.org/2000/svg">
<path fill-rule="evenodd" clip-rule="evenodd" d="M23 5.27075C13.2085 5.27075 5.27087 13.2084 5.27087 22.9999C5.27087 32.7915 13.2085 40.7291 23 40.7291C32.7916 40.7291 40.7292 32.7915 40.7292 22.9999C40.7292 13.2084 32.7916 5.27075 23 5.27075ZM2.39587 22.9999C2.39587 11.6206 11.6207 2.39575 23 2.39575C34.3794 2.39575 43.6042 11.6206 43.6042 22.9999C43.6042 34.3793 34.3794 43.6041 23 43.6041C11.6207 43.6041 2.39587 34.3793 2.39587 22.9999ZM23 10.0624C23.794 10.0624 24.4375 10.706 24.4375 11.4999V12.107C27.5625 12.6665 30.1875 15.0143 30.1875 18.2083C30.1875 19.0022 29.544 19.6458 28.75 19.6458C27.9561 19.6458 27.3125 19.0022 27.3125 18.2083C27.3125 16.9079 26.2314 15.5314 24.4375 15.0409V21.6903C27.5625 22.2499 30.1875 24.5977 30.1875 27.7916C30.1875 30.9855 27.5625 33.3333 24.4375 33.8928V34.4999C24.4375 35.2938 23.794 35.9374 23 35.9374C22.2061 35.9374 21.5625 35.2938 21.5625 34.4999V33.8928C18.4375 33.3333 15.8125 30.9855 15.8125 27.7916C15.8125 26.9977 16.4561 26.3541 17.25 26.3541C18.044 26.3541 18.6875 26.9977 18.6875 27.7916C18.6875 29.092 19.7687 30.4684 21.5625 30.9589V24.3095C18.4375 23.75 15.8125 21.4022 15.8125 18.2083C15.8125 15.0143 18.4375 12.6665 21.5625 12.107V11.4999C21.5625 10.706 22.2061 10.0624 23 10.0624ZM21.5625 15.0409C19.7687 15.5314 18.6875 16.9079 18.6875 18.2083C18.6875 19.5086 19.7687 20.8851 21.5625 21.3756V15.0409ZM24.4375 24.6243V30.9589C26.2314 30.4684 27.3125 29.092 27.3125 27.7916C27.3125 26.4912 26.2314 25.1148 24.4375 24.6243Z" fill="#515B6F"/>
</svg>
