<svg width="50" height="50" viewBox="0 0 50 50" fill="none" xmlns="http://www.w3.org/2000/svg">
<path opacity="0.5" d="M39.5833 33.0896V16.6666C39.5833 12.7382 39.5833 10.774 38.3629 9.55364C37.1425 8.33325 35.1783 8.33325 31.25 8.33325H18.75C14.8216 8.33325 12.8574 8.33325 11.637 9.55364C10.4166 10.774 10.4166 12.7382 10.4166 16.6666V33.0896C10.4166 34.6746 11.0814 36.1869 12.2492 37.2584C19.4616 43.8764 30.5383 43.8764 37.7507 37.2584C38.9185 36.1869 39.5833 34.6746 39.5833 33.0896Z" fill="#515B6F"/>
<path d="M39.5798 15.1042H35.4166C34.5537 15.1042 33.8541 15.8038 33.8541 16.6667C33.8541 17.5297 34.5537 18.2292 35.4166 18.2292H39.5833V16.6667C39.5833 16.1072 39.5833 15.5876 39.5798 15.1042Z" fill="#515B6F"/>
<path d="M39.5833 21.3542H35.4166C34.5537 21.3542 33.8541 22.0538 33.8541 22.9167C33.8541 23.7797 34.5537 24.4792 35.4166 24.4792H39.5833V21.3542Z" fill="#515B6F"/>
<path d="M39.5833 27.6042H35.4166C34.5537 27.6042 33.8541 28.3038 33.8541 29.1667C33.8541 30.0297 34.5537 30.7292 35.4166 30.7292H39.5833V27.6042Z" fill="#515B6F"/>
<path d="M29.1667 8.33341C29.1667 6.03223 27.3012 4.16675 25 4.16675C22.6989 4.16675 20.8334 6.03223 20.8334 8.33341H29.1667Z" fill="#515B6F"/>
<path d="M23.4375 42.1575C24.4773 42.2435 25.5227 42.2435 26.5625 42.1575V44.2709C26.5625 45.1338 25.8629 45.8334 25 45.8334C24.1371 45.8334 23.4375 45.1338 23.4375 44.2709V42.1575Z" fill="#515B6F"/>
<path fill-rule="evenodd" clip-rule="evenodd" d="M19.2709 33.3333C19.2709 32.4703 19.9704 31.7708 20.8334 31.7708H29.1667C30.0297 31.7708 30.7292 32.4703 30.7292 33.3333C30.7292 34.1962 30.0297 34.8958 29.1667 34.8958H20.8334C19.9704 34.8958 19.2709 34.1962 19.2709 33.3333Z" fill="#515B6F"/>
<path d="M29.1667 22.743C29.1667 25.1401 27.3012 27.0833 25 27.0833C22.6989 27.0833 20.8334 25.1401 20.8334 22.743C20.8334 21.2432 22.4646 19.2414 23.6857 17.9529C24.4086 17.1902 25.5915 17.1902 26.3144 17.9529C27.5355 19.2414 29.1667 21.2432 29.1667 22.743Z" fill="#515B6F"/>
</svg>
