<svg width="40" height="40" viewBox="0 0 40 40" fill="none" xmlns="http://www.w3.org/2000/svg">
<path fill-rule="evenodd" clip-rule="evenodd" d="M7.15245 25.506L14.4939 32.8474L15.1057 33.4592L16.3292 34.6828C17.4728 35.8264 18.0446 36.3981 18.7164 36.5781C19.1565 36.6961 19.6199 36.6961 20.06 36.5781C20.7317 36.3981 21.3035 35.8264 22.4471 34.6828C23.5907 33.5392 24.1625 32.9674 24.3425 32.2956C24.4604 31.8555 24.4604 31.3922 24.3425 30.9521C24.1625 30.2803 23.5907 29.7085 22.4471 28.5649L20.6117 26.7296L13.2703 19.3881L11.435 17.5528C10.2914 16.4092 9.7196 15.8374 9.04782 15.6574C8.60772 15.5395 8.14433 15.5395 7.70424 15.6574C7.03245 15.8374 6.46066 16.4092 5.31709 17.5528C4.17353 18.6963 3.60174 19.2681 3.42173 19.9399C3.30381 20.38 3.30381 20.8434 3.42173 21.2835C3.60174 21.9553 4.17353 22.5271 5.31709 23.6706L7.15245 25.506ZM26.7296 20.6117L19.3882 13.2703L17.5528 11.4349C16.4092 10.2913 15.8375 9.71956 15.6575 9.04777C15.5395 8.60768 15.5395 8.14429 15.6575 7.7042C15.8375 7.03241 16.4092 6.46062 17.5528 5.31705C18.6964 4.17348 19.2682 3.6017 19.94 3.42169C20.3801 3.30377 20.8434 3.30377 21.2835 3.42169C21.9553 3.6017 22.5271 4.17348 23.6707 5.31705L25.506 7.15241L32.8409 14.5004L33.4593 15.1056L34.6828 16.3292C35.8264 17.4728 36.3982 18.0446 36.5782 18.7163C36.6961 19.1564 36.6961 19.6198 36.5782 20.0599C36.3982 20.7317 35.8264 21.3035 34.6828 22.4471C33.5393 23.5906 32.9675 24.1624 32.2957 24.3424C31.8556 24.4603 31.3922 24.4603 30.9521 24.3424C30.2803 24.1624 29.7085 23.5906 28.565 22.4471L26.7296 20.6117Z" fill="#515B6F"/>
<path opacity="0.5" d="M31.0129 6.53996L33.46 8.98711L33.6696 9.19682C34.6835 10.2133 35.1904 10.7623 35.1904 11.4343C35.1904 12.151 34.6136 12.7278 33.46 13.8814L32.8417 14.4997L25.5068 7.15175L26.1186 6.53996C27.2722 5.38637 27.849 4.80957 28.5657 4.80957C29.2825 4.80957 29.8593 5.38637 31.0129 6.53996Z" fill="#515B6F"/>
<path opacity="0.5" d="M8.9877 33.4593L6.54056 31.0122C5.38696 29.8586 4.81016 29.2818 4.81016 28.565C4.81016 27.8483 5.38696 27.2715 6.54056 26.1179L7.15234 25.5061L14.4938 32.8475L13.882 33.4593C12.7284 34.6129 12.1516 35.1897 11.4348 35.1897C10.7181 35.1897 10.1413 34.6129 8.9877 33.4593Z" fill="#515B6F"/>
<path opacity="0.5" d="M26.7294 20.6112L20.6115 26.7291L13.2701 19.3876L19.3879 13.2698L26.7294 20.6112Z" fill="#515B6F"/>
</svg>
