<svg width="50" height="50" viewBox="0 0 50 50" fill="none" xmlns="http://www.w3.org/2000/svg">
<g opacity="0.5">
<path fill-rule="evenodd" clip-rule="evenodd" d="M29.1666 45.8334H20.8333C12.9766 45.8334 9.04818 45.8334 6.6074 43.3926C4.16663 40.9519 4.16663 37.0235 4.16663 29.1667V20.8334C4.16663 12.9767 4.16663 9.0483 6.6074 6.60752C9.04818 4.16675 12.9972 4.16675 20.8954 4.16675C22.1579 4.16675 23.1695 4.16675 24.0208 4.20146C23.9928 4.36798 23.9781 4.53785 23.9775 4.70959L23.9583 10.6146C23.9581 12.9002 23.9579 14.9202 24.1768 16.5483C24.4141 18.3132 24.9589 20.0777 26.3991 21.5179C27.8392 22.958 29.6038 23.5028 31.3686 23.7401C32.9968 23.959 35.0167 23.9588 37.3024 23.9586L37.5 23.9586H45.7446C45.8333 25.0717 45.8333 26.4378 45.8333 28.2561V29.1667C45.8333 37.0235 45.8333 40.9519 43.3925 43.3926C40.9517 45.8334 37.0234 45.8334 29.1666 45.8334Z" fill="#515B6F"/>
</g>
<path d="M23.9776 4.70862L23.9584 10.6136C23.9582 12.8992 23.958 14.9192 24.1769 16.5474C24.4142 18.3122 24.959 20.0767 26.3992 21.5169C27.8393 22.957 29.6039 23.5018 31.3687 23.7391C32.9969 23.958 35.0168 23.9579 37.3024 23.9577L45.7447 23.9577C45.7705 24.2817 45.7888 24.6272 45.8018 24.9991H45.8334C45.8334 24.4418 45.8334 24.1632 45.8127 23.8351C45.6949 21.9715 44.9202 19.836 43.8157 18.3303C43.6212 18.0653 43.4883 17.9062 43.2224 17.588C41.5712 15.6117 39.398 13.1499 37.5001 11.4574C35.8108 9.95102 33.4972 8.30292 31.4795 6.95528C29.746 5.79747 28.8792 5.21856 27.6908 4.78829C27.3757 4.67422 26.9601 4.54822 26.6347 4.46812C25.8347 4.27119 25.0559 4.20269 23.9584 4.17896L23.9776 4.70862Z" fill="#515B6F"/>
</svg>
