<svg width="44" height="44" viewBox="0 0 44 44" fill="none" xmlns="http://www.w3.org/2000/svg">
<path fill-rule="evenodd" clip-rule="evenodd" d="M18.346 6.91464L7.34596 16.6924C6.17177 17.7361 5.49996 19.2322 5.49996 20.8032V38.9583H3.66663C2.90723 38.9583 2.29163 39.5739 2.29163 40.3333C2.29163 41.0927 2.90723 41.7083 3.66663 41.7083H40.3333C41.0927 41.7083 41.7083 41.0927 41.7083 40.3333C41.7083 39.5739 41.0927 38.9583 40.3333 38.9583H38.5V20.8032C38.5 19.2322 37.8281 17.7361 36.654 16.6924L25.654 6.91464C23.5701 5.06231 20.4298 5.06231 18.346 6.91464ZM18.3333 15.125C17.5739 15.125 16.9583 15.7406 16.9583 16.5C16.9583 17.2594 17.5739 17.875 18.3333 17.875H25.6666C26.426 17.875 27.0416 17.2594 27.0416 16.5C27.0416 15.7406 26.426 15.125 25.6666 15.125H18.3333ZM25.762 20.625C27.4092 20.6249 28.7827 20.6249 29.8732 20.7715C31.0241 20.9262 32.0633 21.2666 32.8983 22.1016C33.7333 22.9367 34.0737 23.9758 34.2285 25.1268C34.3751 26.2172 34.375 27.5908 34.375 29.238L34.375 38.9583H31.625H12.375H9.62496L9.62496 29.238C9.6249 27.5908 9.62486 26.2172 9.77146 25.1268C9.9262 23.9758 10.2666 22.9367 11.1016 22.1016C11.9367 21.2666 12.9758 20.9262 14.1267 20.7715C15.2172 20.6249 16.5907 20.6249 18.238 20.625H25.762Z" fill="#515B6F"/>
<path opacity="0.5" d="M25.762 20.625H18.238C16.5908 20.6249 15.2172 20.6249 14.1268 20.7715C12.9758 20.9263 11.9367 21.2666 11.1017 22.1017C10.2666 22.9367 9.92625 23.9758 9.77151 25.1268C9.62491 26.2172 9.62495 27.5907 9.625 29.2379L9.62501 38.9582H34.375L34.375 29.238C34.3751 27.5909 34.3751 26.2172 34.2285 25.1268C34.0738 23.9758 33.7334 22.9367 32.8983 22.1017C32.0633 21.2666 31.0242 20.9263 29.8732 20.7715C28.7828 20.6249 27.4092 20.6249 25.762 20.625Z" fill="#515B6F"/>
<path d="M16.5 27.0417C15.7406 27.0417 15.125 27.6574 15.125 28.4167C15.125 29.1761 15.7406 29.7917 16.5 29.7917H27.5C28.2594 29.7917 28.875 29.1761 28.875 28.4167C28.875 27.6574 28.2594 27.0417 27.5 27.0417H16.5Z" fill="#515B6F"/>
<path d="M16.5 32.5417C15.7406 32.5417 15.125 33.1574 15.125 33.9167C15.125 34.6761 15.7406 35.2917 16.5 35.2917H27.5C28.2594 35.2917 28.875 34.6761 28.875 33.9167C28.875 33.1574 28.2594 32.5417 27.5 32.5417H16.5Z" fill="#515B6F"/>
</svg>
