<svg width="42" height="42" viewBox="0 0 42 42" fill="none" xmlns="http://www.w3.org/2000/svg">
<path opacity="0.5" d="M38.5 33.6102V21C38.5 11.335 30.665 3.5 21 3.5C11.335 3.5 3.5 11.335 3.5 21V33.6102C3.5 35.8567 5.86421 37.3179 7.8736 36.3132C9.4977 35.5011 11.4324 35.6216 12.9432 36.6288C14.6429 37.7619 16.8571 37.7619 18.5568 36.6288L19.1739 36.2174C20.2797 35.4802 21.7203 35.4802 22.8261 36.2174L23.4432 36.6288C25.1429 37.7619 27.3571 37.7619 29.0568 36.6288C30.5676 35.6216 32.5023 35.5011 34.1264 36.3132C36.1358 37.3179 38.5 35.8567 38.5 33.6102Z" fill="#515B6F"/>
<path d="M26.25 21C27.2165 21 28 19.8247 28 18.375C28 16.9253 27.2165 15.75 26.25 15.75C25.2835 15.75 24.5 16.9253 24.5 18.375C24.5 19.8247 25.2835 21 26.25 21Z" fill="#515B6F"/>
<path d="M17.5 18.375C17.5 19.8247 16.7165 21 15.75 21C14.7835 21 14 19.8247 14 18.375C14 16.9253 14.7835 15.75 15.75 15.75C16.7165 15.75 17.5 16.9253 17.5 18.375Z" fill="#515B6F"/>
</svg>
