<svg width="50" height="52" viewBox="0 0 50 52" fill="none" xmlns="http://www.w3.org/2000/svg">
<path fill-rule="evenodd" clip-rule="evenodd" d="M18.6702 40.0155C12.5404 35.1297 4.16663 27.0586 4.16663 19.4275C4.16663 6.67901 15.6253 1.91936 25 11.7674C34.3746 1.91936 45.8333 6.67901 45.8333 19.4274C45.8333 27.0588 37.4595 35.1298 31.3297 40.0156C28.5547 42.2274 27.1672 43.3333 25 43.3333C22.8327 43.3333 21.4452 42.2274 18.6702 40.0155ZM34.375 13.5417C35.2379 13.5417 35.9375 14.2692 35.9375 15.1667V17.875H38.5416C39.4046 17.875 40.1041 18.6026 40.1041 19.5C40.1041 20.3975 39.4046 21.125 38.5416 21.125H35.9375V23.8333C35.9375 24.7308 35.2379 25.4583 34.375 25.4583C33.512 25.4583 32.8125 24.7308 32.8125 23.8333V21.125L30.2083 21.125C29.3453 21.125 28.6458 20.3975 28.6458 19.5C28.6458 18.6026 29.3453 17.875 30.2083 17.875H32.8125V15.1667C32.8125 14.2692 33.512 13.5417 34.375 13.5417Z" fill="#515B6F"/>
</svg>
