<svg width="53" height="53" viewBox="0 0 53 53" fill="none" xmlns="http://www.w3.org/2000/svg">
<path d="M48.5833 48.5833L4.41663 48.5833" stroke="#515B6F" stroke-width="1.5" stroke-linecap="round"/>
<path d="M4.41663 24.2917L22.3614 9.93587C24.7809 8.00022 28.219 8.00022 30.6386 9.93587L48.5833 24.2917" stroke="#515B6F" stroke-width="1.5" stroke-linecap="round"/>
<path opacity="0.5" d="M34.2291 12.1458V7.72917C34.2291 7.11935 34.7235 6.625 35.3333 6.625H40.8541C41.4639 6.625 41.9583 7.11935 41.9583 7.72917V18.7708" stroke="#515B6F" stroke-width="1.5" stroke-linecap="round"/>
<path d="M8.83337 48.5834V20.9792" stroke="#515B6F" stroke-width="1.5" stroke-linecap="round"/>
<path d="M44.1666 48.5834V20.9792" stroke="#515B6F" stroke-width="1.5" stroke-linecap="round"/>
<path opacity="0.5" d="M33.125 48.5834V37.5417C33.125 34.4187 33.125 32.8572 32.1548 31.887C31.1846 30.9167 29.6231 30.9167 26.5 30.9167C23.3769 30.9167 21.8154 30.9167 20.8452 31.887C19.875 32.8572 19.875 34.4187 19.875 37.5417V48.5834" stroke="#515B6F" stroke-width="1.5"/>
<path opacity="0.5" d="M30.9167 20.9792C30.9167 23.4184 28.9393 25.3958 26.5 25.3958C24.0608 25.3958 22.0834 23.4184 22.0834 20.9792C22.0834 18.5399 24.0608 16.5625 26.5 16.5625C28.9393 16.5625 30.9167 18.5399 30.9167 20.9792Z" stroke="#515B6F" stroke-width="1.5"/>
</svg>
