<svg width="50" height="50" viewBox="0 0 50 50" fill="none" xmlns="http://www.w3.org/2000/svg">
<path fill-rule="evenodd" clip-rule="evenodd" d="M25 45.8333C15.7952 45.8333 8.33331 38.2377 8.33331 28.8681C8.33331 19.5719 13.6527 8.72406 21.9522 4.84482C22.9196 4.39266 23.9598 4.16658 25 4.16658V45.8333Z" fill="#515B6F"/>
<path opacity="0.3" d="M28.0478 4.84499C27.0804 4.39283 26.0402 4.16675 25 4.16675V18.7502L34.2326 9.5176C32.4353 7.54297 30.3569 5.92427 28.0478 4.84499Z" fill="#515B6F"/>
<path opacity="0.4" d="M25 18.7502V30.2085L38.7797 16.4287C37.5878 13.8867 36.0546 11.5193 34.2326 9.51758L25 18.7502Z" fill="#515B6F"/>
<path opacity="0.6" d="M25 40.6252L41.2729 24.3522C40.8147 21.6637 39.9663 18.9597 38.7797 16.4287L25 30.2085V40.6252Z" fill="#515B6F"/>
<path opacity="0.7" d="M41.2729 24.3521L25 40.625V45.8332C34.2047 45.8332 41.6667 38.2376 41.6667 28.868C41.6667 27.3905 41.5323 25.8738 41.2729 24.3521Z" fill="#515B6F"/>
</svg>
