<svg width="54" height="54" viewBox="0 0 54 54" fill="none" xmlns="http://www.w3.org/2000/svg">
<path opacity="0.5" d="M44.3621 45.8154C47.5719 44.0652 49.5 41.8214 49.5 39.375C49.5 36.7818 47.3336 34.4163 43.7708 32.625C39.6509 30.5536 33.6637 29.25 27 29.25C20.3363 29.25 14.3491 30.5536 10.2292 32.625C6.6664 34.4163 4.5 36.7818 4.5 39.375C4.5 41.9682 6.6664 44.3337 10.2292 46.125C14.3491 48.1964 20.3362 49.5 27 49.5C33.9899 49.5 40.2353 48.0657 44.3621 45.8154Z" fill="#515B6F"/>
<path fill-rule="evenodd" clip-rule="evenodd" d="M11.25 19.1579C11.25 11.0626 18.3015 4.5 27 4.5C35.6985 4.5 42.75 11.0626 42.75 19.1579C42.75 27.1898 37.7231 36.5623 29.8801 39.914C28.0518 40.6953 25.9482 40.6953 24.1199 39.914C16.2769 36.5623 11.25 27.1898 11.25 19.1579ZM27 24.75C29.4853 24.75 31.5 22.7353 31.5 20.25C31.5 17.7647 29.4853 15.75 27 15.75C24.5147 15.75 22.5 17.7647 22.5 20.25C22.5 22.7353 24.5147 24.75 27 24.75Z" fill="#515B6F"/>
</svg>
