<svg width="54" height="54" viewBox="0 0 54 54" fill="none" xmlns="http://www.w3.org/2000/svg">
<path fill-rule="evenodd" clip-rule="evenodd" d="M41.5068 6.91452C39.1232 6.16835 36.9419 8.07066 36.9419 10.3951V18.5528C34.0239 19.1198 30.6315 19.4478 27 19.4478C23.3685 19.4478 19.9761 19.1198 17.0581 18.5528V10.3951C17.0581 8.07066 14.8768 6.16835 12.4932 6.91452C10.285 7.60575 8.37428 8.4831 6.98136 9.54554C5.61271 10.5895 4.5 12.012 4.5 13.7958V40.6772C4.5 41.1616 4.5841 41.624 4.73411 42.0602C4.86872 42.4516 5.05641 42.8217 5.28401 43.1676C6.01172 44.2733 7.1756 45.1795 8.52434 45.9203C9.89258 46.6719 11.5628 47.3142 13.4385 47.8381C17.1913 48.8864 21.9075 49.5 27 49.5C31.2771 49.5 35.2837 49.0672 38.6751 48.3102C42.034 47.5604 44.9144 46.4652 46.8423 45.059C47.3112 44.7169 47.7539 44.3331 48.1385 43.9079C48.9476 43.0134 49.5 41.9355 49.5 40.6772V13.7958C49.5 12.012 48.3873 10.5895 47.0186 9.54554C45.6257 8.4831 43.715 7.60575 41.5068 6.91452ZM46.3605 18.5098C46.3 18.5494 46.2391 18.5883 46.178 18.6267C44.3281 19.789 41.7872 20.7193 38.8575 21.3877C35.4273 22.1702 31.3536 22.6186 27 22.6186C22.6464 22.6186 18.5727 22.1702 15.1425 21.3877C12.2128 20.7193 9.67195 19.789 7.82202 18.6267C7.76089 18.5883 7.70005 18.5494 7.63953 18.5098V39.1258L14.0086 33.106L16.8802 30.6785C18.9674 28.9141 22.0944 29.0109 24.0624 30.9123L31.0135 37.628C31.5884 38.1834 32.5245 38.2695 33.2076 37.8056L33.6908 37.4776C36.1273 35.8233 39.414 36.0096 41.638 37.9434L45.9156 41.6628C46.2659 41.2405 46.3605 40.9039 46.3605 40.6772V18.5098Z" fill="#515B6F"/>
<path opacity="0.5" d="M43.2217 28.8898C43.2217 30.6411 41.8161 32.0607 40.0822 32.0607C38.3482 32.0607 36.9426 30.6411 36.9426 28.8898C36.9426 27.1386 38.3482 25.719 40.0822 25.719C41.8161 25.719 43.2217 27.1386 43.2217 28.8898Z" fill="#515B6F"/>
</svg>
