<svg width="40" height="40" viewBox="0 0 40 40" fill="none" xmlns="http://www.w3.org/2000/svg">
<path opacity="0.5" d="M10.3701 7.66833C11.1111 7.17325 11.889 6.74385 12.6951 6.38285C14.9816 5.35889 16.1248 4.84691 17.6457 5.83226C19.1667 6.8176 19.1667 8.43393 19.1667 11.6666V14.1666C19.1667 17.3093 19.1667 18.8806 20.143 19.8569C21.1193 20.8333 22.6906 20.8333 25.8333 20.8333H28.3333C31.566 20.8333 33.1823 20.8333 34.1677 22.3542C35.153 23.8751 34.641 25.0183 33.6171 27.3048C33.2561 28.1109 32.8267 28.8888 32.3316 29.6298C30.5918 32.2336 28.119 34.263 25.2258 35.4613C22.3326 36.6597 19.1491 36.9733 16.0777 36.3624C13.0064 35.7514 10.1851 34.2434 7.9708 32.0291C5.75646 29.8148 4.24849 26.9936 3.63755 23.9222C3.02662 20.8508 3.34017 17.6673 4.53856 14.7741C5.73695 11.8809 7.76635 9.40812 10.3701 7.66833Z" fill="#515B6F"/>
<path d="M35.7434 11.7818C34.3904 8.34727 31.6528 5.60973 28.2183 4.25672C25.6491 3.24457 23.3333 5.57202 23.3333 8.33344V15.0001C23.3333 15.9206 24.0795 16.6668 25 16.6668H31.6666C34.4281 16.6668 36.7555 14.351 35.7434 11.7818Z" fill="#515B6F"/>
</svg>
