<svg width="48" height="48" viewBox="0 0 48 48" fill="none" xmlns="http://www.w3.org/2000/svg">
<path opacity="0.5" d="M4 24C4 14.5719 4 9.85786 6.92893 6.92893C9.85786 4 14.5719 4 24 4C33.4281 4 38.1421 4 41.0711 6.92893C44 9.85786 44 14.5719 44 24C44 33.4281 44 38.1421 41.0711 41.0711C38.1421 44 33.4281 44 24 44C14.5719 44 9.85786 44 6.92893 41.0711C4 38.1421 4 33.4281 4 24Z" fill="#515B6F"/>
<path d="M30.1987 24.1872C29.8291 23.5834 29.4686 22.9945 29.1159 22.573C28.7416 22.1257 28.0855 21.5104 27.082 21.5507C26.0785 21.591 25.4737 22.2569 25.1365 22.7327C24.8187 23.1811 24.5066 23.7968 24.1866 24.4283L24.1866 24.4283L20.2108 32.2678C20.0607 32.5639 19.9356 32.8103 19.8231 33.0222C19.6864 32.8251 19.533 32.5952 19.3489 32.319L18.9951 31.7884C18.5884 31.1783 18.2281 30.6378 17.8828 30.2116C17.5083 29.7494 17.0864 29.3367 16.5178 29.0324C15.9492 28.7281 15.3718 28.606 14.7794 28.5508C14.2333 28.4998 13.5838 28.4999 12.8505 28.4999L10 28.4999C9.17157 28.4999 8.5 29.1715 8.5 29.9999C8.5 30.8283 9.17157 31.4999 10 31.4999H12.7889C13.6023 31.4999 14.1106 31.5014 14.5009 31.5378C14.8603 31.5713 15.0076 31.6267 15.1022 31.6774C15.1969 31.7281 15.3247 31.8198 15.5519 32.1003C15.7987 32.4049 16.0819 32.827 16.5331 33.5038L16.9052 34.0619C17.2817 34.627 17.6522 35.183 18.0111 35.5797C18.3968 36.006 19.0564 36.5743 20.0307 36.5164C21.005 36.4585 21.5926 35.8162 21.9252 35.3472C22.2346 34.9108 22.5366 34.3149 22.8436 33.7092L26.8185 25.8713C26.9752 25.5624 27.106 25.3046 27.2237 25.083C27.3588 25.2944 27.5099 25.5409 27.6908 25.8363L28.9988 27.9719C29.3991 28.6254 29.7532 29.2036 30.0969 29.6598C30.4696 30.1545 30.8953 30.5977 31.4813 30.9259C32.0673 31.2541 32.6675 31.3857 33.284 31.4451C33.8526 31.5 34.5305 31.4999 35.2969 31.4999L38 31.4999C38.8284 31.4999 39.5 30.8283 39.5 29.9999C39.5 29.1715 38.8284 28.4999 38 28.4999H35.361C34.5114 28.4999 33.9795 28.4983 33.572 28.459C33.1966 28.4228 33.0446 28.363 32.9474 28.3086C32.8503 28.2541 32.7199 28.1558 32.4929 27.8546C32.2466 27.5276 31.9674 27.0748 31.5236 26.3503L30.1987 24.1872Z" fill="#515B6F"/>
</svg>
