<svg width="44" height="44" viewBox="0 0 44 44" fill="none" xmlns="http://www.w3.org/2000/svg">
<path d="M23.0739 39.2595C24.1479 40.3334 25.8764 40.3334 29.3333 40.3334H33C36.457 40.3334 38.1855 40.3334 39.2594 39.2595C40.3333 38.1855 40.3333 36.4571 40.3333 33.0001V11.0001C40.3333 7.54314 40.3333 5.81463 39.2594 4.74069C38.1855 3.66675 36.457 3.66675 33 3.66675H29.3333C25.8764 3.66675 24.1479 3.66675 23.0739 4.74069C22.153 5.66168 22.0218 7.06403 22.0031 9.62508L25.6667 9.62508C26.4261 9.62508 27.0417 10.2407 27.0417 11.0001C27.0417 11.7595 26.4261 12.3751 25.6667 12.3751H22V15.1251H27.5C28.2594 15.1251 28.875 15.7407 28.875 16.5001C28.875 17.2595 28.2594 17.8751 27.5 17.8751H22V20.6251H25.6667C26.4261 20.6251 27.0417 21.2407 27.0417 22.0001C27.0417 22.7595 26.4261 23.3751 25.6667 23.3751H22V26.1251L27.5 26.1251C28.2594 26.1251 28.875 26.7407 28.875 27.5001C28.875 28.2595 28.2594 28.8751 27.5 28.8751L22 28.8751V31.6251H25.6667C26.4261 31.6251 27.0417 32.2407 27.0417 33.0001C27.0417 33.7595 26.4261 34.3751 25.6667 34.3751H22.0031C22.0218 36.9361 22.153 38.3385 23.0739 39.2595Z" fill="#515B6F"/>
<path d="M14.6667 27.8548L14.6667 13.226C13.2569 13.8072 11.3972 14.3057 9.16702 14.3057C6.93647 14.3057 5.07659 13.807 3.66669 13.2258L3.66669 27.8548C3.66669 28.9963 3.66669 29.5672 3.73593 30.1273C3.8176 30.7881 3.97102 31.438 4.19346 32.0655C4.38203 32.5974 4.6373 33.108 5.14785 34.1291L7.84008 39.5135C8.09132 40.016 8.60489 40.3334 9.16669 40.3334C9.72848 40.3334 10.2421 40.016 10.4933 39.5135L13.1855 34.1291C13.6961 33.108 13.9513 32.5974 14.1399 32.0655C14.3624 31.438 14.5158 30.7881 14.5974 30.1273C14.6667 29.5672 14.6667 28.9963 14.6667 27.8548Z" fill="#515B6F"/>
<path d="M14.6667 9.16675C14.6667 6.12918 12.2043 3.66675 9.16669 3.66675C6.12912 3.66675 3.66669 6.12918 3.66669 9.16675L3.66669 10.9213C3.71497 10.9455 3.76421 10.9699 3.81439 10.9942C5.06276 11.5995 6.88442 12.2077 9.16702 12.2077C11.4496 12.2077 13.2713 11.5995 14.5196 10.9942C14.5696 10.97 14.6186 10.9458 14.6667 10.9216V9.16675Z" fill="#515B6F"/>
</svg>
