<svg width="52" height="52" viewBox="0 0 52 52" fill="none" xmlns="http://www.w3.org/2000/svg">
<path opacity="0.5" d="M26 47.6666C37.9662 47.6666 47.6667 37.9661 47.6667 25.9999C47.6667 14.0337 37.9662 4.33325 26 4.33325C14.0339 4.33325 4.33337 14.0337 4.33337 25.9999C4.33337 37.9661 14.0339 47.6666 26 47.6666Z" fill="#515B6F"/>
<path d="M18.1946 33.699C18.729 32.978 19.7467 32.8268 20.4677 33.3612C22.0458 34.5309 23.9506 35.2083 26 35.2083C28.0495 35.2083 29.9543 34.5309 31.5324 33.3612C32.2534 32.8268 33.2711 32.978 33.8055 33.699C34.3399 34.42 34.1887 35.4377 33.4677 35.9721C31.3608 37.5338 28.7841 38.4583 26 38.4583C23.2159 38.4583 20.6393 37.5338 18.5324 35.9721C17.8114 35.4377 17.6601 34.42 18.1946 33.699Z" fill="#515B6F"/>
<path d="M32.5 26C33.6967 26 34.6667 24.5449 34.6667 22.75C34.6667 20.9551 33.6967 19.5 32.5 19.5C31.3034 19.5 30.3334 20.9551 30.3334 22.75C30.3334 24.5449 31.3034 26 32.5 26Z" fill="#515B6F"/>
<path d="M19.5 26C20.6967 26 21.6667 24.5449 21.6667 22.75C21.6667 20.9551 20.6967 19.5 19.5 19.5C18.3034 19.5 17.3334 20.9551 17.3334 22.75C17.3334 24.5449 18.3034 26 19.5 26Z" fill="#515B6F"/>
</svg>
