<?xml version="1.0" standalone="no"?>
<!DOCTYPE svg PUBLIC "-//W3C//DTD SVG 20010904//EN"
 "http://www.w3.org/TR/2001/REC-SVG-20010904/DTD/svg10.dtd">
<svg version="1.0" xmlns="http://www.w3.org/2000/svg"
 width="512.000000pt" height="512.000000pt" viewBox="0 0 512.000000 512.000000"
 preserveAspectRatio="xMidYMid meet">

<g transform="translate(0.000000,512.000000) scale(0.100000,-0.100000)"
fill="#000000" stroke="none">
<path d="M1405 4674 c-44 -23 -933 -912 -956 -956 -23 -45 -25 -124 -4 -176
11 -25 163 -184 488 -509 l472 -473 -477 -477 c-401 -402 -478 -484 -488 -518
-8 -28 -10 -183 -8 -522 l3 -481 30 -43 c17 -23 50 -53 74 -66 l44 -23 479 0
c408 0 484 2 516 15 25 11 184 163 509 488 l473 472 472 -472 c324 -324 485
-477 510 -488 48 -19 118 -19 166 0 51 22 936 904 963 960 23 49 24 123 4 173
-11 25 -164 186 -488 509 l-472 473 382 382 c394 396 441 451 496 583 83 200
83 429 0 630 -58 139 -177 282 -306 368 -220 146 -514 173 -762 70 -132 -55
-187 -102 -583 -496 l-382 -382 -473 472 c-325 325 -484 477 -509 488 -48 19
-134 19 -173 -1z m2598 -481 c80 -38 152 -110 191 -193 28 -58 31 -75 31 -160
0 -136 -28 -192 -168 -337 l-106 -108 -278 278 -278 278 109 106 c81 79 124
112 170 133 79 36 96 39 188 35 61 -2 92 -10 141 -32z m-2020 -1055 l-278
-278 -115 115 -114 114 95 98 c101 102 122 134 133 195 24 131 -111 266 -242
242 -61 -11 -93 -32 -195 -132 l-97 -96 -115 114 -115 115 277 277 278 278
382 -382 383 -383 -277 -277z m1387 227 l275 -275 -1120 -1120 -1120 -1120
-275 2 -275 3 -3 275 -2 275 1117 1117 c615 615 1120 1118 1123 1118 3 0 129
-124 280 -275z m533 -2147 l-278 -278 -115 115 -114 114 95 98 c101 102 122
134 133 195 24 131 -111 266 -242 242 -61 -11 -93 -32 -195 -132 l-97 -96
-115 114 -115 115 277 277 278 278 382 -382 383 -383 -277 -277z"/>
</g>
</svg>
