<svg xmlns="http://www.w3.org/2000/svg" xmlns:xlink="http://www.w3.org/1999/xlink" width="1080" zoomAndPan="magnify" viewBox="0 0 810 1439.999935" height="1920" preserveAspectRatio="xMidYMid meet" version="1.0"><defs><clipPath id="aa3d158876"><path d="M 0 0 L 37 0 L 37 36.75 L 0 36.75 Z M 0 0 " clip-rule="nonzero"/></clipPath></defs><rect x="-81" width="972" fill="#ffffff" y="-143.999994" height="1727.999922" fill-opacity="1"/><rect x="-81" width="972" fill="#ffffff" y="-143.999994" height="1727.999922" fill-opacity="1"/><g clip-path="url(#aa3d158876)"><path fill="#515b6f" d="M 3.878906 6.417969 L 6.511719 3.765625 C 9 1.253906 10.234375 0.0078125 11.777344 0.0078125 C 13.320312 0.0078125 14.570312 1.253906 17.042969 3.765625 L 12.664062 8.195312 L 3.878906 17.039062 C 1.390625 14.53125 0.15625 13.285156 0.15625 11.730469 C 0.15625 10.175781 1.390625 8.929688 3.878906 6.417969 Z M 34.46875 12.332031 C 34.800781 11.996094 35.101562 11.628906 35.363281 11.234375 C 35.625 10.839844 35.847656 10.425781 36.027344 9.988281 C 36.207031 9.550781 36.34375 9.097656 36.4375 8.632812 C 36.527344 8.167969 36.574219 7.699219 36.574219 7.226562 C 36.574219 6.753906 36.527344 6.285156 36.4375 5.820312 C 36.34375 5.355469 36.207031 4.902344 36.027344 4.464844 C 35.847656 4.027344 35.625 3.609375 35.363281 3.21875 C 35.101562 2.824219 34.800781 2.457031 34.46875 2.121094 C 34.136719 1.785156 33.777344 1.488281 33.386719 1.226562 C 32.996094 0.960938 32.582031 0.738281 32.148438 0.558594 C 31.714844 0.375 31.265625 0.238281 30.804688 0.148438 C 30.34375 0.0546875 29.878906 0.0078125 29.40625 0.0078125 C 28.933594 0.0078125 28.46875 0.0546875 28.007812 0.148438 C 27.546875 0.238281 27.097656 0.375 26.664062 0.558594 C 26.230469 0.738281 25.816406 0.960938 25.425781 1.226562 C 25.035156 1.488281 24.675781 1.785156 24.34375 2.121094 L 22.730469 3.75 C 22.757812 3.824219 22.773438 3.882812 22.800781 3.953125 C 23.609375 6.277344 24.878906 8.3125 26.613281 10.058594 C 28.328125 11.800781 30.339844 13.078125 32.648438 13.886719 C 32.714844 13.914062 32.785156 13.941406 32.855469 13.960938 Z M 17.273438 29.6875 L 30.746094 16.101562 C 28.449219 15.136719 26.425781 13.769531 24.679688 11.996094 C 22.921875 10.226562 21.566406 8.191406 20.605469 5.890625 L 7.152344 19.476562 C 6.425781 20.15625 5.746094 20.878906 5.113281 21.648438 C 4.585938 22.339844 4.128906 23.078125 3.746094 23.863281 C 3.441406 24.535156 3.210938 25.253906 2.730469 26.664062 L 0.257812 34.175781 C 0.140625 34.523438 0.125 34.875 0.210938 35.230469 C 0.292969 35.589844 0.464844 35.894531 0.722656 36.15625 C 0.980469 36.417969 1.289062 36.589844 1.644531 36.675781 C 2 36.765625 2.351562 36.75 2.699219 36.640625 L 10.132812 34.132812 C 11.082031 33.847656 12.007812 33.503906 12.910156 33.105469 C 13.699219 32.726562 14.4375 32.265625 15.121094 31.726562 C 15.875 31.082031 16.59375 30.402344 17.273438 29.6875 Z M 32.855469 30.316406 L 30.207031 32.972656 C 27.734375 35.480469 26.484375 36.726562 24.941406 36.726562 C 23.398438 36.726562 22.164062 35.480469 19.675781 32.972656 L 28.460938 24.125 L 32.855469 19.695312 C 35.328125 22.203125 36.578125 23.453125 36.578125 25.007812 C 36.578125 26.5625 35.328125 27.824219 32.855469 30.316406 Z M 32.855469 30.316406 " fill-opacity="1" fill-rule="nonzero"/></g></svg>