<svg xmlns="http://www.w3.org/2000/svg" xmlns:xlink="http://www.w3.org/1999/xlink" width="1080" zoomAndPan="magnify" viewBox="0 0 810 1439.999935" height="1920" preserveAspectRatio="xMidYMid meet" version="1.0"><defs><clipPath id="03d1afc82c"><path d="M 405 689.382812 L 466 689.382812 L 466 750.882812 L 405 750.882812 Z M 405 689.382812 " clip-rule="nonzero"/></clipPath></defs><rect x="-81" width="972" fill="#ffffff" y="-143.999994" height="1727.999922" fill-opacity="1"/><rect x="-81" width="972" fill="#ffffff" y="-143.999994" height="1727.999922" fill-opacity="1"/><g clip-path="url(#03d1afc82c)"><path fill="#515b6f" d="M 411.449219 700.054688 L 415.824219 695.640625 C 419.957031 691.472656 422.011719 689.398438 424.574219 689.398438 C 427.136719 689.398438 429.214844 691.472656 433.324219 695.640625 L 426.050781 703.003906 L 411.449219 717.703125 C 407.316406 713.535156 405.261719 711.460938 405.261719 708.878906 C 405.261719 706.292969 407.316406 704.222656 411.449219 700.054688 Z M 462.285156 709.878906 C 462.839844 709.320312 463.335938 708.710938 463.773438 708.058594 C 464.207031 707.402344 464.574219 706.710938 464.875 705.980469 C 465.175781 705.253906 465.402344 704.503906 465.554688 703.734375 C 465.707031 702.960938 465.785156 702.179688 465.785156 701.394531 C 465.785156 700.605469 465.707031 699.828125 465.554688 699.054688 C 465.402344 698.28125 465.175781 697.53125 464.875 696.804688 C 464.574219 696.078125 464.207031 695.386719 463.773438 694.730469 C 463.335938 694.074219 462.839844 693.46875 462.285156 692.910156 C 461.734375 692.351562 461.136719 691.855469 460.488281 691.417969 C 459.839844 690.980469 459.152344 690.613281 458.429688 690.3125 C 457.710938 690.011719 456.964844 689.78125 456.199219 689.628906 C 455.429688 689.476562 454.65625 689.398438 453.875 689.398438 C 453.089844 689.398438 452.316406 689.476562 451.550781 689.628906 C 450.78125 689.78125 450.039062 690.011719 449.316406 690.3125 C 448.59375 690.613281 447.90625 690.980469 447.257812 691.417969 C 446.609375 691.855469 446.011719 692.351562 445.460938 692.910156 L 442.777344 695.617188 C 442.824219 695.738281 442.851562 695.835938 442.898438 695.957031 C 444.238281 699.820312 446.347656 703.199219 449.230469 706.097656 C 452.082031 708.996094 455.425781 711.117188 459.265625 712.460938 C 459.375 712.507812 459.488281 712.550781 459.601562 712.582031 Z M 433.710938 738.71875 L 456.097656 716.144531 C 452.28125 714.539062 448.921875 712.265625 446.015625 709.316406 C 443.097656 706.378906 440.839844 703 439.25 699.175781 L 416.886719 721.75 C 415.679688 722.878906 414.554688 724.082031 413.503906 725.359375 C 412.625 726.511719 411.867188 727.738281 411.230469 729.039062 C 410.722656 730.160156 410.335938 731.355469 409.539062 733.695312 L 405.429688 746.179688 C 405.238281 746.757812 405.210938 747.34375 405.351562 747.933594 C 405.492188 748.527344 405.777344 749.039062 406.203125 749.472656 C 406.632812 749.90625 407.144531 750.191406 407.734375 750.335938 C 408.324219 750.480469 408.910156 750.460938 409.492188 750.273438 L 421.84375 746.105469 C 423.417969 745.632812 424.957031 745.066406 426.460938 744.398438 C 427.769531 743.769531 428.992188 743.007812 430.132812 742.109375 C 431.382812 741.039062 432.578125 739.910156 433.710938 738.71875 Z M 459.601562 739.765625 L 455.203125 744.179688 C 451.09375 748.347656 449.015625 750.421875 446.453125 750.421875 C 443.890625 750.421875 441.835938 748.347656 437.699219 744.179688 L 452.300781 729.480469 L 459.601562 722.117188 C 463.710938 726.285156 465.789062 728.359375 465.789062 730.941406 C 465.789062 733.527344 463.710938 735.621094 459.601562 739.765625 Z M 459.601562 739.765625 " fill-opacity="1" fill-rule="nonzero"/></g></svg>