<svg xmlns="http://www.w3.org/2000/svg" xmlns:xlink="http://www.w3.org/1999/xlink" width="1080" zoomAndPan="magnify" viewBox="0 0 810 1439.999935" height="1920" preserveAspectRatio="xMidYMid meet" version="1.0"><defs><clipPath id="d9b2d29099"><path d="M 244 560.226562 L 561 560.226562 L 561 879 L 244 879 Z M 244 560.226562 " clip-rule="nonzero"/></clipPath></defs><g clip-path="url(#d9b2d29099)"><path fill="#515b6f" d="M 276.683594 615.902344 L 299.515625 592.875 C 321.089844 571.117188 331.8125 560.304688 345.183594 560.304688 C 358.554688 560.304688 369.402344 571.117188 390.851562 592.875 L 352.878906 631.296875 L 276.683594 708.015625 C 255.109375 686.257812 244.386719 675.445312 244.386719 661.960938 C 244.386719 648.472656 255.109375 637.660156 276.683594 615.902344 Z M 541.980469 667.175781 C 543.425781 665.722656 544.792969 664.203125 546.089844 662.613281 C 547.386719 661.027344 548.601562 659.382812 549.734375 657.675781 C 550.871094 655.96875 551.917969 654.210938 552.878906 652.402344 C 553.84375 650.59375 554.714844 648.742188 555.496094 646.847656 C 556.277344 644.953125 556.964844 643.023438 557.554688 641.0625 C 558.148438 639.101562 558.644531 637.117188 559.042969 635.105469 C 559.441406 633.097656 559.738281 631.070312 559.941406 629.03125 C 560.140625 626.992188 560.238281 624.949219 560.238281 622.902344 C 560.238281 620.851562 560.140625 618.808594 559.941406 616.769531 C 559.738281 614.730469 559.441406 612.703125 559.042969 610.695312 C 558.644531 608.683594 558.148438 606.699219 557.554688 604.738281 C 556.964844 602.777344 556.277344 600.847656 555.496094 598.953125 C 554.714844 597.058594 553.84375 595.207031 552.878906 593.398438 C 551.917969 591.589844 550.871094 589.832031 549.734375 588.125 C 548.601562 586.421875 547.386719 584.773438 546.089844 583.1875 C 544.792969 581.597656 543.425781 580.078125 541.980469 578.625 C 541.265625 577.902344 540.53125 577.195312 539.78125 576.511719 C 539.03125 575.824219 538.261719 575.15625 537.480469 574.503906 C 536.695312 573.855469 535.894531 573.226562 535.082031 572.617188 C 534.265625 572.007812 533.4375 571.417969 532.59375 570.847656 C 531.75 570.28125 530.894531 569.734375 530.023438 569.207031 C 529.152344 568.679688 528.269531 568.175781 527.371094 567.695312 C 526.476562 567.210938 525.570312 566.75 524.652344 566.3125 C 523.730469 565.875 522.804688 565.460938 521.863281 565.070312 C 520.925781 564.675781 519.976562 564.308594 519.019531 563.964844 C 518.0625 563.617188 517.097656 563.296875 516.125 563 C 515.152344 562.703125 514.171875 562.429688 513.183594 562.179688 C 512.199219 561.929688 511.207031 561.707031 510.207031 561.507812 C 509.210938 561.308594 508.207031 561.132812 507.203125 560.980469 C 506.195312 560.832031 505.1875 560.707031 504.171875 560.605469 C 503.160156 560.503906 502.144531 560.429688 501.128906 560.378906 C 500.113281 560.328125 499.097656 560.304688 498.078125 560.304688 C 497.0625 560.304688 496.042969 560.328125 495.027344 560.378906 C 494.011719 560.429688 492.996094 560.503906 491.984375 560.605469 C 490.972656 560.707031 489.960938 560.832031 488.957031 560.980469 C 487.949219 561.132812 486.949219 561.308594 485.949219 561.507812 C 484.953125 561.707031 483.960938 561.929688 482.972656 562.179688 C 481.988281 562.429688 481.007812 562.703125 480.035156 563 C 479.0625 563.296875 478.09375 563.617188 477.136719 563.964844 C 476.179688 564.308594 475.234375 564.675781 474.292969 565.070312 C 473.355469 565.460938 472.425781 565.875 471.507812 566.3125 C 470.589844 566.75 469.679688 567.210938 468.785156 567.695312 C 467.890625 568.175781 467.007812 568.679688 466.136719 569.207031 C 465.265625 569.734375 464.40625 570.28125 463.5625 570.847656 C 462.71875 571.417969 461.890625 572.007812 461.074219 572.617188 C 460.261719 573.226562 459.460938 573.855469 458.679688 574.503906 C 457.894531 575.15625 457.128906 575.824219 456.378906 576.511719 C 455.625 577.195312 454.894531 577.902344 454.179688 578.625 L 440.175781 592.746094 C 440.425781 593.382812 440.554688 593.890625 440.804688 594.527344 C 444.257812 604.480469 448.773438 613.921875 454.351562 622.855469 C 459.929688 631.789062 466.429688 639.988281 473.859375 647.457031 C 481.199219 654.917969 489.289062 661.453125 498.128906 667.0625 C 506.96875 672.667969 516.328125 677.203125 526.210938 680.660156 C 526.785156 680.910156 527.375 681.121094 527.976562 681.296875 Z M 392.867188 817.6875 L 509.683594 699.875 C 499.828125 695.730469 490.472656 690.660156 481.617188 684.664062 C 472.765625 678.671875 464.585938 671.863281 457.078125 664.25 C 449.535156 656.65625 442.789062 648.40625 436.847656 639.503906 C 430.90625 630.597656 425.875 621.203125 421.757812 611.324219 L 305.066406 729.136719 C 298.769531 735.027344 292.882812 741.304688 287.40625 747.964844 C 282.824219 753.980469 278.871094 760.382812 275.546875 767.175781 C 272.898438 773.03125 270.878906 779.261719 266.714844 791.476562 L 245.269531 856.617188 C 244.78125 858.097656 244.503906 859.613281 244.4375 861.171875 C 244.367188 862.726562 244.511719 864.265625 244.871094 865.78125 C 245.226562 867.296875 245.78125 868.734375 246.539062 870.097656 C 247.292969 871.460938 248.21875 872.695312 249.316406 873.800781 C 250.414062 874.90625 251.640625 875.84375 252.996094 876.609375 C 254.351562 877.378906 255.785156 877.945312 257.300781 878.316406 C 258.8125 878.6875 260.347656 878.84375 261.902344 878.789062 C 263.460938 878.734375 264.980469 878.46875 266.464844 877.992188 L 330.929688 856.234375 C 339.144531 853.773438 347.179688 850.804688 355.023438 847.328125 C 361.855469 844.046875 368.246094 840.0625 374.199219 835.371094 C 380.722656 829.792969 386.945312 823.898438 392.867188 817.6875 Z M 527.976562 823.15625 L 505.015625 846.183594 C 483.570312 867.941406 472.722656 878.753906 459.351562 878.753906 C 445.976562 878.753906 435.253906 867.941406 413.683594 846.183594 L 489.878906 769.464844 L 527.976562 731.042969 C 549.421875 752.800781 560.273438 763.613281 560.273438 777.101562 C 560.273438 790.585938 549.421875 801.527344 527.976562 823.15625 Z M 527.976562 823.15625 " fill-opacity="1" fill-rule="nonzero"/></g></svg>