<svg width="52" height="52" viewBox="0 0 52 52" fill="none" xmlns="http://www.w3.org/2000/svg">
<circle cx="26" cy="43.3333" r="4.33333" fill="#515B6F"/>
<circle cx="13" cy="13.0001" r="4.33333" fill="#515B6F"/>
<path fill-rule="evenodd" clip-rule="evenodd" d="M26 2.70825C26.5433 2.70825 27.0507 2.97979 27.3521 3.43186L31.6854 9.93186C32.1832 10.6786 31.9815 11.6875 31.2347 12.1853C30.488 12.6832 29.4791 12.4814 28.9813 11.7346L26 7.26276L23.0188 11.7346C22.5209 12.4814 21.512 12.6832 20.7653 12.1853C20.0186 11.6875 19.8168 10.6786 20.3146 9.93186L24.6479 3.43186C24.9493 2.97979 25.4567 2.70825 26 2.70825Z" fill="#515B6F"/>
<path d="M34.6666 17.3333C34.6666 15.2906 34.6666 14.2692 35.3012 13.6346C35.9358 13 36.9572 13 39 13C41.0427 13 42.0641 13 42.6987 13.6346C43.3333 14.2692 43.3333 15.2906 43.3333 17.3333C43.3333 19.3761 43.3333 20.3975 42.6987 21.0321C42.0641 21.6667 41.0427 21.6667 39 21.6667C36.9572 21.6667 35.9358 21.6667 35.3012 21.0321C34.6666 20.3975 34.6666 19.3761 34.6666 17.3333Z" fill="#515B6F"/>
<g opacity="0.5">
<path d="M26.017 2.7085C26.3678 2.71208 26.692 2.82684 26.956 3.01922C26.6864 2.82321 26.3592 2.71202 26.017 2.7085Z" fill="#515B6F"/>
<path d="M27.3336 3.4047L27.3523 3.43202L27.3584 3.44129L27.3336 3.4047Z" fill="#515B6F"/>
<path d="M26.0002 7.26292L27.625 9.70016V32.4825C27.8878 32.3485 28.163 32.2328 28.4491 32.1375L35.5231 29.7795C36.629 29.4108 37.375 28.3759 37.375 27.2101V21.6667L37.3751 21.6478C37.8311 21.6667 38.3664 21.6667 39 21.6667C39.6336 21.6667 40.1689 21.6667 40.6249 21.6478L40.625 21.6667V27.2101C40.625 29.7748 38.9839 32.0517 36.5509 32.8627L29.4769 35.2207C28.371 35.5893 27.625 36.6243 27.625 37.79V39.315C27.1232 39.1119 26.5747 39 26 39C25.4253 39 24.8768 39.1119 24.375 39.315V31.29C24.375 30.1243 23.629 29.0893 22.5231 28.7207L15.4491 26.3627C13.0161 25.5517 11.375 23.2748 11.375 20.7101V17.0184C11.8768 17.2215 12.4253 17.3334 13 17.3334C13.5747 17.3334 14.1232 17.2215 14.625 17.0184V20.7101C14.625 21.8759 15.371 22.9108 16.4769 23.2795L23.5509 25.6375C23.837 25.7328 24.1122 25.8485 24.375 25.9825V9.70068L26.0002 7.26292Z" fill="#515B6F"/>
</g>
</svg>
