<svg width="50" height="50" viewBox="0 0 50 50" fill="none" xmlns="http://www.w3.org/2000/svg">
<ellipse cx="18.752" cy="12.5001" rx="8.33333" ry="8.33333" fill="#515B6F"/>
<ellipse cx="18.752" cy="35.4188" rx="14.5833" ry="8.33333" fill="#515B6F"/>
<path d="M43.7493 35.4175C43.7493 38.8693 39.5085 41.6675 34.3309 41.6675C35.8563 40.0002 36.9052 37.9073 36.9052 35.4205C36.9052 32.9308 35.8539 30.8359 34.3256 29.1676C39.5032 29.1676 43.7493 31.9658 43.7493 35.4175Z" fill="#515B6F"/>
<path d="M37.4993 12.5015C37.4993 15.9532 34.701 18.7515 31.2493 18.7515C30.4966 18.7515 29.775 18.6184 29.1067 18.3745C30.0923 16.641 30.6552 14.6358 30.6552 12.4991C30.6552 10.364 30.0931 8.36022 29.1089 6.62758C29.7766 6.38422 30.4974 6.25146 31.2493 6.25146C34.701 6.25146 37.4993 9.04969 37.4993 12.5015Z" fill="#515B6F"/>
</svg>
