<svg width="56" height="56" viewBox="0 0 56 56" fill="none" xmlns="http://www.w3.org/2000/svg">
<path fill-rule="evenodd" clip-rule="evenodd" d="M4.24224 12.3022C5.17988 12.0678 6.13001 12.6378 6.36442 13.5755L7.25568 17.1405C8.67858 22.8321 13.1625 27.2449 18.8639 28.5833H37.3333C42.2124 28.5833 46.3191 32.2352 46.8892 37.0808L48.4047 49.9621C48.5176 50.922 47.831 51.7917 46.8711 51.9046C45.9112 52.0175 45.0416 51.3309 44.9286 50.3711L43.4132 37.4898C43.0505 34.4068 40.4376 32.0833 37.3333 32.0833H18.4746L18.287 32.0416C11.2049 30.4678 5.61976 25.0277 3.86018 17.9894L2.96892 14.4244C2.73451 13.4867 3.3046 12.5366 4.24224 12.3022Z" fill="#515B6F"/>
<path opacity="0.5" d="M18.6667 32.0833V41.9999C18.6667 46.3997 18.6667 48.5996 20.0335 49.9664C21.4004 51.3333 23.6002 51.3333 28 51.3333C32.3998 51.3333 34.5997 51.3333 35.9665 49.9664C37.3333 48.5996 37.3334 46.3997 37.3334 41.9999V32.0833H18.6667Z" fill="#515B6F"/>
<circle cx="28" cy="14.0001" r="9.33333" fill="#515B6F"/>
</svg>
