<svg width="18" height="33" viewBox="0 0 18 33" fill="none" xmlns="http://www.w3.org/2000/svg">
<path d="M2 0.291748C2.75939 0.291748 3.375 0.907357 3.375 1.66675V3.56695L12.5559 8.15733L12.6549 8.20682C14.0013 8.87994 15.149 9.4537 15.9477 10.0112C16.7576 10.5764 17.6091 11.3972 17.6091 12.6667C17.6091 13.9363 16.7576 14.7571 15.9477 15.3223C15.149 15.8798 14.0013 16.4536 12.6549 17.1267L3.375 21.7666V31.0001C3.375 31.7595 2.75939 32.3751 2 32.3751C1.2406 32.3751 0.624996 31.7595 0.624996 31.0001V20.9465C0.624594 20.9274 0.624595 20.9082 0.624996 20.8891V4.44441C0.624595 4.42529 0.624594 4.40613 0.624996 4.38696V1.66675C0.624996 0.907357 1.2406 0.291748 2 0.291748Z" fill="#515B6F"/>
</svg>
